{
  "accessors": [
    {
      "bufferView": 2,
      "componentType": 5126,
      "count": 5702,
      "max": [
        1.2462661266326904,
        1.082442045211792,
        5.6383185386657715
      ],
      "min": [
        -1.4680284261703491,
        -2.181525945663452,
        -0.056840136647224426
      ],
      "type": "VEC3"
    },
    {
      "bufferView": 2,
      "byteOffset": 68424,
      "componentType": 5126,
      "count": 5702,
      "max": [
        0.9999879598617554,
        1.0,
        0.9995464086532593
      ],
      "min": [
        -0.9999879598617554,
        -1.0,
        -0.9998100996017456
      ],
      "type": "VEC3"
    },
    {
      "bufferView": 3,
      "componentType": 5126,
      "count": 5702,
      "max": [
        0.9999083280563354,
        1.0,
        0.9999359846115112,
        1.0
      ],
      "min": [
        -0.9999949932098389,
        -1.0,
        -0.9990905523300171,
        -1.0
      ],
      "type": "VEC4"
    },
    {
      "bufferView": 1,
      "componentType": 5126,
      "count": 5702,
      "max": [
        0.9853885769844055,
        0.9841199517250061
      ],
      "min": [
        0.01563223823904991,
        0.015623711049556732
      ],
      "type": "VEC2"
    },
    {
      "bufferView": 1,
      "byteOffset": 45616,
      "componentType": 5126,
      "count": 5702,
      "max": [
        0.9853885769844055,
        0.9841199517250061
      ],
      "min": [
        0.01563223823904991,
        0.015623711049556732
      ],
      "type": "VEC2"
    },
    {
      "bufferView": 1,
      "byteOffset": 91232,
      "componentType": 5126,
      "count": 5702,
      "max": [
        0.9853885769844055,
        0.9841199517250061
      ],
      "min": [
        0.01563223823904991,
        0.015623711049556732
      ],
      "type": "VEC2"
    },
    {
      "bufferView": 1,
      "byteOffset": 136848,
      "componentType": 5126,
      "count": 5702,
      "max": [
        0.9853885769844055,
        0.9841199517250061
      ],
      "min": [
        0.01563223823904991,
        0.015623711049556732
      ],
      "type": "VEC2"
    },
    {
      "bufferView": 0,
      "componentType": 5125,
      "count": 25806,
      "type": "SCALAR"
    },
    {
      "bufferView": 2,
      "byteOffset": 136848,
      "componentType": 5126,
      "count": 504,
      "max": [
        0.5886868238449097,
        1.3090935945510864,
        1.48173189163208
      ],
      "min": [
        -1.216942548751831,
        -0.9397319555282593,
        -0.41556721925735474
      ],
      "type": "VEC3"
    },
    {
      "bufferView": 2,
      "byteOffset": 142896,
      "componentType": 5126,
      "count": 504,
      "max": [
        0.9912789463996887,
        1.0,
        0.9999758005142212
      ],
      "min": [
        -0.9898304343223572,
        -1.0,
        -1.0
      ],
      "type": "VEC3"
    },
    {
      "bufferView": 1,
      "byteOffset": 182464,
      "componentType": 5126,
      "count": 504,
      "max": [
        0.9633357524871826,
        0.48951342701911926
      ],
      "min": [
        0.03666424751281738,
        0.05177047848701477
      ],
      "type": "VEC2"
    },
    {
      "bufferView": 0,
      "byteOffset": 103224,
      "componentType": 5125,
      "count": 1920,
      "type": "SCALAR"
    }
  ],
  "asset": {
    "extras": {
      "author": "VertexCraft (https://sketchfab.com/VertexCraft)",
      "license": "CC-BY-4.0 (http://creativecommons.org/licenses/by/4.0/)",
      "source": "https://sketchfab.com/3d-models/stylized-witch-cauldron-fe6fce3bd07b4e04abc72565e2f512b0",
      "title": "Stylized Witch Cauldron"
    },
    "generator": "Sketchfab-12.67.0",
    "version": "2.0"
  },
  "bufferViews": [
    {
      "buffer": 0,
      "byteLength": 110904,
      "name": "floatBufferViews",
      "target": 34963
    },
    {
      "buffer": 0,
      "byteLength": 186496,
      "byteOffset": 110904,
      "byteStride": 8,
      "name": "floatBufferViews",
      "target": 34962
    },
    {
      "buffer": 0,
      "byteLength": 148944,
      "byteOffset": 297400,
      "byteStride": 12,
      "name": "floatBufferViews",
      "target": 34962
    },
    {
      "buffer": 0,
      "byteLength": 91232,
      "byteOffset": 446344,
      "byteStride": 16,
      "name": "floatBufferViews",
      "target": 34962
    }
  ],
  "buffers": [
    {
      "byteLength": 537576,
      "uri": "scene.bin"
    }
  ],
  "images": [
    {
      "uri": "textures/Cauldron_baseColor.png"
    },
    {
      "uri": "textures/Cauldron_metallicRoughness.png"
    },
    {
      "uri": "textures/Cauldron_emissive.png"
    },
    {
      "uri": "textures/Cauldron_normal.png"
    },
    {
      "uri": "textures/Flame.001_baseColor.png"
    },
    {
      "uri": "textures/Flame.001_emissive.png"
    }
  ],
  "materials": [
    {
      "alphaMode": "BLEND",
      "doubleSided": true,
      "emissiveFactor": [
        1.0,
        1.0,
        1.0
      ],
      "emissiveTexture": {
        "index": 2
      },
      "name": "Cauldron",
      "normalTexture": {
        "index": 3
      },
      "occlusionTexture": {
        "index": 1
      },
      "pbrMetallicRoughness": {
        "baseColorTexture": {
          "index": 0
        },
        "metallicRoughnessTexture": {
          "index": 1
        }
      }
    },
    {
      "alphaMode": "BLEND",
      "doubleSided": true,
      "emissiveFactor": [
        1.0,
        1.0,
        1.0
      ],
      "emissiveTexture": {
        "index": 5
      },
      "name": "Flame.001",
      "pbrMetallicRoughness": {
        "baseColorTexture": {
          "index": 4
        },
        "metallicFactor": 0.0,
        "roughnessFactor": 0.8211145618000169
      }
    }
  ],
  "meshes": [
    {
      "name": "Cauldron_Cauldron_0",
      "primitives": [
        {
          "attributes": {
            "NORMAL": 1,
            "POSITION": 0,
            "TANGENT": 2,
            "TEXCOORD_0": 3,
            "TEXCOORD_1": 4,
            "TEXCOORD_2": 5,
            "TEXCOORD_3": 6
          },
          "indices": 7,
          "material": 0,
          "mode": 4
        }
      ]
    },
    {
      "name": "Fire_Flame.001_0",
      "primitives": [
        {
          "attributes": {
            "NORMAL": 9,
            "POSITION": 8,
            "TEXCOORD_0": 10
          },
          "indices": 11,
          "material": 1,
          "mode": 4
        }
      ]
    }
  ],
  "nodes": [
    {
      "children": [
        1
      ],
      "matrix": [
        1.0,
        0.0,
        0.0,
        0.0,
        0.0,
        2.220446049250313e-16,
        -1.0,
        0.0,
        0.0,
        1.0,
        2.220446049250313e-16,
        0.0,
        -0.21562215685844421,
        0.4889019131660461,
        0.13891929388046276,
        1.0
      ],
      "name": "Sketchfab_model"
    },
    {
      "children": [
        2
      ],
      "matrix": [
        0.009999999776482582,
        0.0,
        0.0,
        0.0,
        0.0,
        0.0,
        0.009999999776482582,
        0.0,
        0.0,
        -0.009999999776482582,
        0.0,
        0.0,
        0.0,
        0.0,
        0.0,
        1.0
      ],
      "name": "a907816713464c8f95e3fc6bd0614c4a.fbx"
    },
    {
      "children": [
        3,
        6,
        8
      ],
      "name": "RootNode"
    },
    {
      "children": [
        4
      ],
      "matrix": [
        100.0,
        0.0,
        0.0,
        0.0,
        0.0,
        99.99999999999972,
        -7.5497901264043296e-06,
        0.0,
        0.0,
        7.5497901264043296e-06,
        99.99999999999972,
        0.0,
        96.45555877685547,
        220.26828002929688,
        -131.64273071289063,
        1.0
      ],
      "name": "Point"
    },
    {
      "children": [
        5
      ],
      "matrix": [
        1.0,
        0.0,
        0.0,
        0.0,
        0.0,
        2.220446049250313e-16,
        1.0,
        0.0,
        0.0,
        -1.0,
        2.220446049250313e-16,
        0.0,
        0.0,
        0.0,
        0.0,
        1.0
      ],
      "name": "Object_4"
    },
    {
      "name": "Object_5"
    },
    {
      "children": [
        7
      ],
      "matrix": [
        100.0,
        0.0,
        0.0,
        0.0,
        0.0,
        -1.629206793918314e-05,
        -99.99999999999868,
        0.0,
        0.0,
        99.99999999999868,
        -1.629206793918314e-05,
        0.0,
        0.0,
        0.0,
        0.0,
        1.0
      ],
      "name": "Cauldron"
    },
    {
      "mesh": 0,
      "name": "Cauldron_Cauldron_0"
    },
    {
      "children": [
        9
      ],
      "matrix": [
        71.27721667523257,
        -69.407843025935,
        10.104934909197446,
        0.0,
        50.452510115110314,
        40.72773979662243,
        -76.13012172683891,
        0.0,
        48.724763787181566,
        59.36162512554544,
        64.04759836510323,
        0.0,
        0.0,
        0.0,
        0.0,
        1.0
      ],
      "name": "Fire"
    },
    {
      "mesh": 1,
      "name": "Fire_Flame.001_0"
    }
  ],
  "samplers": [
    {
      "magFilter": 9729,
      "minFilter": 9987,
      "wrapS": 10497,
      "wrapT": 10497
    }
  ],
  "scene": 0,
  "scenes": [
    {
      "name": "Sketchfab_Scene",
      "nodes": [
        0
      ]
    }
  ],
  "textures": [
    {
      "sampler": 0,
      "source": 0
    },
    {
      "sampler": 0,
      "source": 1
    },
    {
      "sampler": 0,
      "source": 2
    },
    {
      "sampler": 0,
      "source": 3
    },
    {
      "sampler": 0,
      "source": 4
    },
    {
      "sampler": 0,
      "source": 5
    }
  ]
}
